<?xml version="1.0" encoding="UTF-8"?>
<svg version="1.1" xmlns="http://www.w3.org/2000/svg" width="493" height="91">
<path d="M0 0 C162.69 0 325.38 0 493 0 C493 30.03 493 60.06 493 91 C330.31 91 167.62 91 0 91 C0 60.97 0 30.94 0 0 Z " fill="#0E3B68" transform="translate(0,0)"/>
<path d="M0 0 C1.15693359 0.00644531 2.31386719 0.01289063 3.50585938 0.01953125 C4.70404297 0.03628906 5.90222656 0.05304687 7.13671875 0.0703125 C8.96299805 0.08384766 8.96299805 0.08384766 10.82617188 0.09765625 C13.82572149 0.12118213 16.82486919 0.15405597 19.82421875 0.1953125 C20.31921875 3.1653125 20.31921875 3.1653125 20.82421875 6.1953125 C18.51421875 6.8553125 16.20421875 7.5153125 13.82421875 8.1953125 C14.15421875 8.8553125 14.48421875 9.5153125 14.82421875 10.1953125 C15.54248039 17.29550539 15.31942523 22.51715695 10.82421875 28.1953125 C6.2326168 31.05838988 2.81410731 31.53464897 -2.55078125 31.3828125 C-3.79601563 31.35574219 -5.04125 31.32867187 -6.32421875 31.30078125 C-7.26523437 31.26597656 -8.20625 31.23117188 -9.17578125 31.1953125 C-8.51578125 33.1753125 -7.85578125 35.1553125 -7.17578125 37.1953125 C-6.17417969 37.23269531 -5.17257813 37.27007812 -4.140625 37.30859375 C9.42729043 37.93205352 9.42729043 37.93205352 14.82421875 41.1953125 C17.51502331 45.23151935 17.49064298 48.45537014 16.82421875 53.1953125 C14.99826086 56.49608253 13.71970756 57.80447895 10.2734375 59.30859375 C5.86673865 60.44145971 1.79079613 60.4873457 -2.73828125 60.4453125 C-3.99415039 60.45691406 -3.99415039 60.45691406 -5.27539062 60.46875 C-9.68458365 60.45478581 -13.16735577 60.26100416 -17.17578125 58.1953125 C-16.51578125 56.5453125 -15.85578125 54.8953125 -15.17578125 53.1953125 C-14.08265625 53.3603125 -12.98953125 53.5253125 -11.86328125 53.6953125 C-2.2902184 54.86221619 -2.2902184 54.86221619 7.01171875 53.0078125 C9.07630208 51.30572917 9.07630208 51.30572917 9.19921875 48.5703125 C9.07082199 46.24585851 9.07082199 46.24585851 7.82421875 45.1953125 C4.33019935 45.05903439 0.84242912 44.94736827 -2.65429688 44.94140625 C-8.46691074 44.74983702 -11.1691793 43.46060843 -15.17578125 39.1953125 C-15.76091642 35.68450151 -15.51487139 33.87349278 -13.92578125 30.6953125 C-13.55453125 29.4578125 -13.55453125 29.4578125 -13.17578125 28.1953125 C-14.17828331 26.85864309 -15.18172646 25.52266213 -16.19140625 24.19140625 C-18.47410451 19.56260145 -17.99749025 14.16263608 -17.17578125 9.1953125 C-13.55771448 2.03129989 -7.7461023 -0.07631628 0 0 Z " fill="#F6F8F9" transform="translate(31.17578125,22.8046875)"/>
<path d="M0 0 C4.38650314 2.32226637 6.78170516 4.56341031 9 9 C9.38671875 8.51789062 9.7734375 8.03578125 10.171875 7.5390625 C10.69265625 6.90742188 11.2134375 6.27578125 11.75 5.625 C12.51570313 4.68527344 12.51570313 4.68527344 13.296875 3.7265625 C15.72272703 1.26732718 17.72154492 0.1097779 21.18359375 -0.1875 C25.42879527 0.16565368 28.15032794 0.53515112 31 3.875 C33.98268619 8.53544717 34.13682625 12.15108392 34.09765625 17.51171875 C34.0962413 18.23994339 34.09482635 18.96816803 34.09336853 19.71846008 C34.08777659 22.04151539 34.07522562 24.36447388 34.0625 26.6875 C34.05748396 28.26367048 34.05292123 29.83984248 34.04882812 31.41601562 C34.0378098 35.27738098 34.02055074 39.13867408 34 43 C32.02 43 30.04 43 28 43 C27.970271 41.72153198 27.970271 41.72153198 27.93994141 40.41723633 C27.86160496 37.23941676 27.77490335 34.06196418 27.68261719 30.88452148 C27.64445712 29.51221419 27.60958204 28.13981129 27.578125 26.76733398 C27.53219318 24.7886771 27.47326363 22.81033558 27.4140625 20.83203125 C27.3826416 19.64327393 27.3512207 18.4545166 27.31884766 17.22973633 C27.00709819 14.07190039 26.44752804 11.81242287 25 9 C22.11138291 7.55569145 20.20352299 7.62311494 17 8 C13.38227447 11.04217829 10.22921679 13.97337959 9.68115234 18.8190918 C9.64973145 19.93453369 9.61831055 21.04997559 9.5859375 22.19921875 C9.54726563 23.40771484 9.50859375 24.61621094 9.46875 25.86132812 C9.42234375 27.7552832 9.42234375 27.7552832 9.375 29.6875 C9.33632813 30.96173828 9.29765625 32.23597656 9.2578125 33.54882812 C9.16342314 36.69907292 9.0778417 39.84930991 9 43 C6.69 43 4.38 43 2 43 C1.98541748 42.08186523 1.97083496 41.16373047 1.95581055 40.21777344 C1.89466485 36.80312091 1.82049783 33.38926328 1.73754883 29.97509766 C1.70434645 28.49896862 1.67629983 27.02271406 1.65356445 25.54638672 C1.61993049 23.42100668 1.56761481 21.29677196 1.51171875 19.171875 C1.48553467 17.8940918 1.45935059 16.61630859 1.43237305 15.29980469 C0.98062734 11.85215086 0.47971936 10.393907 -2 8 C-4.8707236 7.24862832 -4.8707236 7.24862832 -8 8 C-11.71893699 10.57464868 -14.36345674 12.76875437 -16 17 C-16.36504688 19.90099927 -16.36504688 19.90099927 -16.4140625 23.078125 C-16.47207031 24.81835938 -16.47207031 24.81835938 -16.53125 26.59375 C-16.5621875 27.8003125 -16.593125 29.006875 -16.625 30.25 C-16.68300781 32.08304688 -16.68300781 32.08304688 -16.7421875 33.953125 C-16.83642108 36.9685994 -16.92203455 39.98406828 -17 43 C-19.31 43 -21.62 43 -24 43 C-24.495 22.21 -24.495 22.21 -25 1 C-22.69 1 -20.38 1 -18 1 C-16.64560332 3.70879335 -16.93498549 6.00933268 -17 9 C-16.34 9 -15.68 9 -15 9 C-14.773125 8.4225 -14.54625 7.845 -14.3125 7.25 C-11.01863635 1.60337661 -6.31111315 -0.6068378 0 0 Z " fill="#F5F7F8" transform="translate(278,23)"/>
<path d="M0 0 C3.48096275 2.06016163 4.37487465 3.18430528 6.0625 6.8125 C6.38057297 9.5260881 6.55006356 12.02446723 6.57421875 14.73828125 C6.59216995 15.48587204 6.61012115 16.23346283 6.62861633 17.00370789 C6.68253849 19.37741558 6.71655554 21.75092432 6.75 24.125 C6.78318921 25.74026195 6.81768035 27.35549771 6.85351562 28.97070312 C6.93825399 32.91782476 7.00515049 36.86488927 7.0625 40.8125 C3.5975 41.3075 3.5975 41.3075 0.0625 41.8125 C-0.2675 40.4925 -0.5975 39.1725 -0.9375 37.8125 C-1.47375 38.080625 -2.01 38.34875 -2.5625 38.625 C-3.34625 39.016875 -4.13 39.40875 -4.9375 39.8125 C-5.865625 40.34875 -6.79375 40.885 -7.75 41.4375 C-11.52875699 43.06755204 -13.85736123 43.32251735 -17.9375 42.8125 C-21.03789543 41.05755919 -23.42575667 39.32424333 -25.9375 36.8125 C-26.70653032 31.3321471 -27.01839357 26.41746317 -23.875 21.75 C-16.03877282 16.58142462 -10.25666633 16.43412783 -0.9375 16.8125 C-1.07799518 15.33281676 -1.22504826 13.85375484 -1.375 12.375 C-1.45621094 11.55128906 -1.53742188 10.72757813 -1.62109375 9.87890625 C-1.72680815 7.82587975 -1.72680815 7.82587975 -2.9375 6.8125 C-4.28017413 6.72618126 -5.62724322 6.70543527 -6.97265625 6.71484375 C-7.78154297 6.71806641 -8.59042969 6.72128906 -9.42382812 6.72460938 C-10.6990332 6.73717773 -10.6990332 6.73717773 -12 6.75 C-12.85400391 6.75451172 -13.70800781 6.75902344 -14.58789062 6.76367188 C-16.70445663 6.77549627 -18.82098685 6.79343231 -20.9375 6.8125 C-21.2675 5.1625 -21.5975 3.5125 -21.9375 1.8125 C-14.71415434 -1.39787585 -7.64382868 -2.82208865 0 0 Z " fill="#F1F3F6" transform="translate(346.9375,24.1875)"/>
<path d="M0 0 C0.69416016 -0.02449219 1.38832031 -0.04898437 2.10351562 -0.07421875 C5.76935505 -0.09510672 7.76805033 0.26534282 10.87109375 2.2734375 C14.49482862 5.95882382 14.144967 9.30345388 14.25390625 14.2265625 C14.27468735 15.00059418 14.29546844 15.77462585 14.31687927 16.57211304 C14.38233448 19.04798392 14.44124087 21.52396202 14.5 24 C14.54318907 25.67709448 14.58680348 27.35417807 14.63085938 29.03125 C14.73801171 33.14572308 14.83929045 37.26030414 14.9375 41.375 C11.4725 41.87 11.4725 41.87 7.9375 42.375 C7.9375 40.725 7.9375 39.075 7.9375 37.375 C7.46699219 37.72433594 6.99648437 38.07367188 6.51171875 38.43359375 C5.88910156 38.88863281 5.26648438 39.34367187 4.625 39.8125 C4.01011719 40.26496094 3.39523438 40.71742187 2.76171875 41.18359375 C-1.19041055 43.76474886 -5.48540358 44.01527436 -10.0625 43.375 C-13.81462276 41.35997111 -15.69894095 39.92033858 -18.0625 36.375 C-18.83079349 32.14938579 -18.97106259 28.09187 -16.9296875 24.234375 C-13.73990452 20.2596716 -11.06603708 18.65017329 -6.0625 17.375 C-2.6328125 17.1796875 -2.6328125 17.1796875 0.8125 17.25 C1.96492188 17.26804687 3.11734375 17.28609375 4.3046875 17.3046875 C5.17351562 17.32789062 6.04234375 17.35109375 6.9375 17.375 C6.82340407 15.91577307 6.69584456 14.45759402 6.5625 13 C6.49289063 12.18789063 6.42328125 11.37578125 6.3515625 10.5390625 C6.10857412 8.17165809 6.10857412 8.17165809 3.9375 6.375 C-1.73687001 5.76295643 -7.46474495 6.40147738 -13.0625 7.375 C-13.3925 5.725 -13.7225 4.075 -14.0625 2.375 C-9.34041861 0.52755032 -5.02361132 0.00938116 0 0 Z " fill="#F5F7F9" transform="translate(109.0625,23.625)"/>
<path d="M0 0 C2.31 0 4.62 0 7 0 C7.33 7.92 7.66 15.84 8 24 C9.65 22.02 11.3 20.04 13 18 C16.19839957 15.2458226 18.40052259 14.79101143 22.5 15.0625 C26.63868008 15.69604171 29.07393144 16.89659395 32 20 C34.51202863 23.70598365 34.25686927 27.51626824 34.1953125 31.828125 C34.1924826 32.57713074 34.18965271 33.32613647 34.18673706 34.09783936 C34.1755726 36.48205776 34.15047531 38.86589579 34.125 41.25 C34.11496535 42.86978623 34.10584035 44.48957836 34.09765625 46.109375 C34.07564555 50.07306246 34.04114175 54.03646681 34 58 C32.02 58 30.04 58 28 58 C27.98541748 57.08186523 27.97083496 56.16373047 27.95581055 55.21777344 C27.89466485 51.80312091 27.82049783 48.38926328 27.73754883 44.97509766 C27.70434645 43.49896862 27.67629983 42.02271406 27.65356445 40.54638672 C27.61993049 38.42100668 27.56761481 36.29677196 27.51171875 34.171875 C27.48553467 32.8940918 27.45935059 31.61630859 27.43237305 30.29980469 C26.97901186 26.83982171 26.54558334 25.35625444 24 23 C19.38244021 22.40418583 17.18158667 22.291048 13.1875 24.6875 C9.12654407 28.98051056 7.63413034 32.25430802 7.48828125 38.17578125 C7.45283203 39.33271484 7.41738281 40.48964844 7.38085938 41.68164062 C7.34702148 43.47891602 7.34702148 43.47891602 7.3125 45.3125 C7.27833984 46.53001953 7.24417969 47.74753906 7.20898438 49.00195312 C7.12665183 52.00121014 7.05745079 55.00018014 7 58 C4.69 58 2.38 58 0 58 C0 38.86 0 19.72 0 0 Z " fill="#F3F5F7" transform="translate(439,8)"/>
<path d="M0 0 C4.58766916 2.20561017 6.51915294 4.35000178 8.40884399 9.05105591 C9.38650088 12.2742298 9.33333552 15.33315144 9.29296875 18.68359375 C9.28872391 19.38396255 9.28447906 20.08433136 9.28010559 20.80592346 C9.26347156 23.01686 9.2258518 25.22684457 9.1875 27.4375 C9.17243326 28.94725235 9.15874836 30.45701916 9.14648438 31.96679688 C9.11361921 35.64483434 9.06194582 39.32232407 9 43 C6.69 43 4.38 43 2 43 C1.9906543 42.08186523 1.98130859 41.16373047 1.97167969 40.21777344 C1.92760069 36.80294722 1.86596268 33.38936892 1.79248047 29.97509766 C1.76429912 28.49897804 1.74307034 27.02270831 1.72900391 25.54638672 C1.70753302 23.42076943 1.66086957 21.29695121 1.609375 19.171875 C1.58842773 17.8940918 1.56748047 16.61630859 1.54589844 15.29980469 C0.91457525 11.48363106 0.06689956 10.28231128 -3 8 C-5.86976283 7.16516674 -5.86976283 7.16516674 -9 8 C-12.21591533 10.16151686 -15.24860121 12.49720242 -17 16 C-17.15411106 18.0307477 -17.24982453 20.06606421 -17.31640625 22.1015625 C-17.35830078 23.31328125 -17.40019531 24.525 -17.44335938 25.7734375 C-17.48267578 27.04445313 -17.52199219 28.31546875 -17.5625 29.625 C-17.60568359 30.90375 -17.64886719 32.1825 -17.69335938 33.5 C-17.79969886 36.66655348 -17.90172833 39.83318753 -18 43 C-20.31 43 -22.62 43 -25 43 C-25.16721165 37.17944212 -25.32781152 31.35875454 -25.48217773 25.5378418 C-25.53567894 23.55602051 -25.5910143 21.57424788 -25.64819336 19.5925293 C-25.72987855 16.75059507 -25.80505172 13.90855338 -25.87890625 11.06640625 C-25.90594131 10.17474258 -25.93297638 9.28307892 -25.96083069 8.36439514 C-26.01275915 6.24352554 -26.01188911 4.12147191 -26 2 C-25 1 -25 1 -22.4375 0.9375 C-21.2309375 0.9684375 -21.2309375 0.9684375 -20 1 C-19.01 3.31 -18.02 5.62 -17 8 C-16.46375 7.236875 -15.9275 6.47375 -15.375 5.6875 C-10.98805402 0.72332428 -6.56269196 -0.82033649 0 0 Z " fill="#F5F6F8" transform="translate(161,23)"/>
<path d="M0 0 C-0.33 1.65 -0.66 3.3 -1 5 C-3.3152228 5 -5.63074915 4.98494233 -7.9453125 4.9296875 C-9.51925781 4.90261719 -9.51925781 4.90261719 -11.125 4.875 C-12.17945313 4.85179687 -13.23390625 4.82859375 -14.3203125 4.8046875 C-17.15351541 4.7176261 -17.15351541 4.7176261 -19 7 C-19.50014953 9.45741537 -19.50014953 9.45741537 -19 12 C-16.08486388 14.71899007 -13.40535932 15.57938578 -9.5625 16.4375 C-4.31666755 17.78043311 -0.8682436 19.33108058 2.3125 23.875 C3.26385272 26.81554477 3.36983143 28.91807139 3 32 C0.32718951 37.04864204 -2.49987832 39.67236764 -7.8125 41.6875 C-14.98368456 42.71195494 -20.32922938 41.59418858 -27 39 C-26.67 37.35 -26.34 35.7 -26 34 C-25.30003906 34.15984375 -24.60007813 34.3196875 -23.87890625 34.484375 C-20.85410379 35.02613067 -18.00911907 35.20340148 -14.9375 35.25 C-13.91527344 35.27578125 -12.89304688 35.3015625 -11.83984375 35.328125 C-8.62368287 34.95651907 -7.28262671 34.2610925 -5 32 C-4.41666667 29.5 -4.41666667 29.5 -5 27 C-8.05463562 22.84611834 -13.04293128 22.41618721 -17.7734375 21.16015625 C-21.22689137 19.91841799 -23.35920977 18.53035719 -26 16 C-27.21762731 12.34711807 -27.39075851 9.84245864 -27 6 C-20.2130038 -4.2774514 -10.65899374 -3.10079818 0 0 Z " fill="#F2F4F7" transform="translate(241,25)"/>
<path d="M0 0 C2.31 0 4.62 0 7 0 C7 2.97 7 5.94 7 9 C11.62 9 16.24 9 21 9 C21 10.98 21 12.96 21 15 C16.38 15 11.76 15 7 15 C7.33 24.57 7.66 34.14 8 44 C10.64 44.33 13.28 44.66 16 45 C17.34084736 45.30169066 18.6806062 45.61517681 20 46 C20.33 47.65 20.66 49.3 21 51 C17.9473937 51.88327729 15.17494823 52.1633007 12 52.1875 C10.7315625 52.20876953 10.7315625 52.20876953 9.4375 52.23046875 C6.67241302 51.96902623 5.25187203 51.63729862 3 50 C0.30501111 45.52975045 -0.36182408 42.25741391 -0.29296875 37.0703125 C-0.28330078 35.78125 -0.27363281 34.4921875 -0.26367188 33.1640625 C-0.23861188 31.81770214 -0.21321712 30.47134797 -0.1875 29.125 C-0.17243504 27.75522295 -0.15874982 26.38542998 -0.14648438 25.015625 C-0.11121379 21.67667642 -0.06191896 18.33854325 0 15 C-1.98 15 -3.96 15 -6 15 C-6 13.02 -6 11.04 -6 9 C-4.02 9 -2.04 9 0 9 C0 6.03 0 3.06 0 0 Z " fill="#EFF2F5" transform="translate(185,15)"/>
<path d="M0 0 C2.31 0 4.62 0 7 0 C7 2.97 7 5.94 7 9 C11.62 9 16.24 9 21 9 C21 10.98 21 12.96 21 15 C16.38 15 11.76 15 7 15 C7.11966605 19.11192929 7.24220982 23.22360851 7.37231445 27.33520508 C7.41571434 28.73489199 7.45738564 30.13463359 7.49731445 31.53442383 C7.55489445 33.54261495 7.61914 35.55061149 7.68359375 37.55859375 C7.72025146 38.76829834 7.75690918 39.97800293 7.79467773 41.22436523 C7.68938266 43.90705456 7.68938266 43.90705456 9 45 C10.68608966 45.07205511 12.37500659 45.08386068 14.0625 45.0625 C14.98160156 45.05347656 15.90070313 45.04445312 16.84765625 45.03515625 C17.55792969 45.02355469 18.26820313 45.01195312 19 45 C19.66 46.98 20.32 48.96 21 51 C17.9473937 51.88327729 15.17494823 52.1633007 12 52.1875 C10.7315625 52.20876953 10.7315625 52.20876953 9.4375 52.23046875 C6.67241302 51.96902623 5.25187203 51.63729862 3 50 C0.30501111 45.52975045 -0.36182408 42.25741391 -0.29296875 37.0703125 C-0.28330078 35.78125 -0.27363281 34.4921875 -0.26367188 33.1640625 C-0.23861188 31.81770214 -0.21321712 30.47134797 -0.1875 29.125 C-0.17243504 27.75522295 -0.15874982 26.38542998 -0.14648438 25.015625 C-0.11121379 21.67667642 -0.06191896 18.33854325 0 15 C-1.98 15 -3.96 15 -6 15 C-6 13.02 -6 11.04 -6 9 C-4.02 9 -2.04 9 0 9 C0 6.03 0 3.06 0 0 Z " fill="#F0F3F6" transform="translate(369,15)"/>
<path d="M0 0 C-0.33 1.98 -0.66 3.96 -1 6 C-1.99 5.67 -2.98 5.34 -4 5 C-8.6594918 4.45861143 -12.10553068 4.56932959 -16.375 6.625 C-20.18542674 10.07252895 -21.76889122 12.66323342 -22.28125 17.84375 C-22.4499121 23.5220408 -22.49392383 28.25824622 -19 33 C-14.52775607 36.51390595 -8.36571169 35.07534844 -3.0625 34.5 C-1.70786633 34.33717258 -0.35351547 34.17187498 1 34 C1.33 35.65 1.66 37.3 2 39 C-4.76409009 41.74484815 -11.89110344 43.81346328 -19.046875 41.2734375 C-24.18891268 38.57057154 -27.11914225 35.20214438 -29.25 29.875 C-31.09573849 20.33868449 -30.40202235 12.54403643 -25.3125 4.25 C-17.9822692 -2.88211645 -9.34666324 -3.83452851 0 0 Z " fill="#F1F4F6" transform="translate(427,25)"/>
<path d="M0 0 C0.79953138 3.28696233 1.09658936 4.71023192 0 8 C-0.67546875 8.01417969 -1.3509375 8.02835938 -2.046875 8.04296875 C-7.81976697 8.24502999 -7.81976697 8.24502999 -12.5 11.3125 C-12.995 12.199375 -13.49 13.08625 -14 14 C-14.35239746 14.59458008 -14.70479492 15.18916016 -15.06787109 15.80175781 C-16.24223473 18.57126283 -16.32209812 20.85520524 -16.4140625 23.859375 C-16.47207031 25.53193359 -16.47207031 25.53193359 -16.53125 27.23828125 C-16.57765625 28.97658203 -16.57765625 28.97658203 -16.625 30.75 C-16.68300781 32.51150391 -16.68300781 32.51150391 -16.7421875 34.30859375 C-16.8363982 37.20557268 -16.92201602 40.10254626 -17 43 C-19.31 43 -21.62 43 -24 43 C-24.495 22.21 -24.495 22.21 -25 1 C-22.69 1 -20.38 1 -18 1 C-17.34 3.64 -16.68 6.28 -16 9 C-15.52949219 8.43410156 -15.05898437 7.86820313 -14.57421875 7.28515625 C-13.95160156 6.55167969 -13.32898438 5.81820313 -12.6875 5.0625 C-12.07261719 4.33160156 -11.45773438 3.60070312 -10.82421875 2.84765625 C-7.58416019 -0.43403048 -4.37415908 -0.09720354 0 0 Z " fill="#F1F3F6" transform="translate(85,23)"/>
<path d="M0 0 C3.73716178 0.87853713 5.13010387 2.29902003 7.16015625 5.5078125 C7.98065883 9.91303506 7.64143758 13.40774088 5.84765625 17.5078125 C3.42338286 20.3810254 1.4682477 20.47928551 -2.21484375 20.8203125 C-6.44647591 20.45551662 -7.91617933 19.51746705 -10.83984375 16.5078125 C-12.05747106 12.85493057 -12.23060226 10.35027114 -11.83984375 6.5078125 C-8.76952679 1.06047597 -6.04598017 -0.46429898 0 0 Z " fill="#15406C" transform="translate(31.83984375,28.4921875)"/>
<path d="M0 0 C0.99386719 0.00902344 1.98773438 0.01804688 3.01171875 0.02734375 C4.15060547 0.04474609 4.15060547 0.04474609 5.3125 0.0625 C5.81330857 3.19255357 5.96599411 5.94700481 5.3125 9.0625 C2.11139669 13.09442402 -1.4182828 14.8509638 -6.4375 15.6875 C-9.6875 15.0625 -9.6875 15.0625 -12.1875 13.5 C-13.6875 11.0625 -13.6875 11.0625 -13.6875 7.5 C-12.6875 4.0625 -12.6875 4.0625 -10.8125 2.1875 C-7.06699908 0.20458775 -4.17319692 -0.04909643 0 0 Z " fill="#16416C" transform="translate(110.6875,45.9375)"/>
<path d="M0 0 C0.99386719 0.00902344 1.98773438 0.01804688 3.01171875 0.02734375 C4.15060547 0.04474609 4.15060547 0.04474609 5.3125 0.0625 C5.60602731 3.11518407 5.7435293 6.01901261 5.3125 9.0625 C3 11.5 3 11.5 0.3125 13.0625 C-0.6775 13.7225 -1.6675 14.3825 -2.6875 15.0625 C-6.58607963 15.4877996 -8.82427199 15.60201751 -12.1875 13.5 C-13.6875 11.0625 -13.6875 11.0625 -13.6875 7.5 C-12.6875 4.0625 -12.6875 4.0625 -10.8125 2.1875 C-7.06699908 0.20458775 -4.17319692 -0.04909643 0 0 Z " fill="#15406C" transform="translate(340.6875,45.9375)"/>
</svg>
