<?xml version="1.0" encoding="UTF-8"?>
<svg version="1.1" xmlns="http://www.w3.org/2000/svg" width="939" height="540">
<path d="M0 0 C309.87 0 619.74 0 939 0 C939 178.2 939 356.4 939 540 C629.13 540 319.26 540 0 540 C0 361.8 0 183.6 0 0 Z " fill="#0D3A67" transform="translate(0,0)"/>
<path d="M0 0 C0.7425705 0.00149048 1.48514099 0.00298096 2.25021362 0.0045166 C13.82238125 0.04615596 24.94017744 0.76392035 36.25 3.3125 C36.98444336 3.4676709 37.71888672 3.6228418 38.47558594 3.78271484 C56.65399467 7.62438201 74.02576352 13.76192454 90.5 22.375 C91.58120117 22.94009277 92.66240234 23.50518555 93.77636719 24.08740234 C117.26271338 36.61229038 138.01108884 54.21865664 154.25 75.3125 C154.67635742 75.85712891 155.10271484 76.40175781 155.54199219 76.96289062 C171.62528911 97.5967532 183.86653843 121.65948995 189.25 147.3125 C187.27 147.3125 185.29 147.3125 183.25 147.3125 C183.07049805 146.74668213 182.89099609 146.18086426 182.70605469 145.59790039 C176.1492163 125.21495167 168.2245014 104.55005186 155.25 87.3125 C154.55648438 86.33925781 153.86296875 85.36601562 153.1484375 84.36328125 C147.68722786 76.82758385 141.66496813 70.02902646 135.25 63.3125 C134.44820312 62.45785156 133.64640625 61.60320312 132.8203125 60.72265625 C122.30234061 49.80810509 110.16000152 41.1575628 97.25 33.3125 C96.4971875 32.85488281 95.744375 32.39726563 94.96875 31.92578125 C88.03714498 27.91344834 80.67434644 24.63427736 73.39868164 21.30004883 C71.96045952 20.63903207 70.52731178 19.9668665 69.09936523 19.28393555 C63.31625469 16.58292281 57.49034865 14.82092656 51.3125 13.25 C50.40693359 13.00701172 49.50136719 12.76402344 48.56835938 12.51367188 C32.78664109 8.43013873 17.46262901 6.75494521 1.1875 6.875 C0.2946933 6.87837372 -0.5981134 6.88174744 -1.51797485 6.88522339 C-54.54412795 7.17432474 -100.60017859 28.65195309 -137.72192383 65.98193359 C-142.80239309 71.21540761 -147.34438496 76.72259009 -151.57324219 82.66162109 C-152.35610068 83.75989685 -153.14843873 84.85147835 -153.95019531 85.93603516 C-167.48587225 104.29032597 -175.89932693 125.71812076 -182.75 147.3125 C-184.73 147.3125 -186.71 147.3125 -188.75 147.3125 C-183.01393467 119.95297788 -169.57706054 94.71135084 -151.75 73.3125 C-150.91597656 72.29285156 -150.08195312 71.27320313 -149.22265625 70.22265625 C-122.3956579 37.67178351 -86.68229694 15.90672076 -45.859375 5.83984375 C-44.03601852 5.38400463 -42.2202776 4.89790234 -40.40625 4.40625 C-27.04804701 0.81533522 -13.75575037 -0.06877972 0 0 Z " fill="#F0F3F6" transform="translate(462.75,87.6875)"/>
<path d="M0 0 C1.98 0 3.96 0 6 0 C6.28085449 0.80928955 6.56170898 1.6185791 6.85107422 2.45239258 C12.4985969 18.603391 18.26290255 34.20931416 27 49 C27.59167969 50.02351563 28.18335938 51.04703125 28.79296875 52.1015625 C36.58893696 64.95287351 46.66150634 76.1677722 57 87 C57.61230469 87.66515625 58.22460938 88.3303125 58.85546875 89.015625 C64.27299739 94.74081577 70.64611377 99.37724145 77 104 C77.55655273 104.40621582 78.11310547 104.81243164 78.68652344 105.23095703 C117.78610061 133.39128586 167.43022207 146.18693826 215.29467773 139.01806641 C218.55324093 138.43727522 221.77038671 137.72494125 225 137 C227.06101519 136.69801975 229.12346538 136.40560078 231.1875 136.125 C258.14778872 131.52112556 284.70919176 116.66730136 306 100 C306.97453125 99.24976563 307.9490625 98.49953125 308.953125 97.7265625 C319.91334206 89.05233357 329.51455785 79.09865796 338 68 C338.80050781 66.95457031 339.60101562 65.90914063 340.42578125 64.83203125 C355.17018531 45.1133339 363.81381847 23.02011782 372 0 C373.98 0 375.96 0 378 0 C368.66933594 47.43087564 334.5606341 89.13329184 295.28222656 115.52001953 C284.4374133 122.55267443 272.99892794 128.23211867 261 133 C260.03964844 133.41636719 259.07929687 133.83273437 258.08984375 134.26171875 C250.95371603 137.24215681 243.67052873 139.27087231 236.1875 141.1875 C235.2279541 141.43757812 234.2684082 141.68765625 233.27978516 141.9453125 C218.64272021 145.56241988 204.18693992 146.38066993 189.1875 146.3125 C188.35139191 146.31067719 187.51528381 146.30885437 186.65383911 146.30697632 C174.5033801 146.26240426 162.87382734 145.74671023 151 143 C149.29323851 142.64323827 147.58619153 142.28784041 145.87890625 141.93359375 C112.92138676 134.84614907 84.20365297 119.16243549 59 97 C58.28714844 96.40960938 57.57429688 95.81921875 56.83984375 95.2109375 C35.39743995 77.3349294 19.94508292 52.73269729 9.03613281 27.37475586 C8.35112086 25.8047485 7.6475557 24.24269291 6.92480469 22.68969727 C4.60373705 17.68428793 2.97897719 12.81175682 1.75 7.4375 C1.57726562 6.71498047 1.40453125 5.99246094 1.2265625 5.24804688 C0.80993657 3.50053254 0.40380144 1.75052218 0 0 Z " fill="#F3F5F7" transform="translate(274,332)"/>
<path d="M0 0 C1.63001953 -0.05607422 1.63001953 -0.05607422 3.29296875 -0.11328125 C7.73526432 0.42413297 10.96727933 2.1130114 14.8125 4.3125 C14.93697553 8.86562342 15.02724409 13.41773654 15.0871582 17.97216797 C15.11215732 19.51824212 15.14616902 21.06419982 15.18969727 22.60986328 C15.61476509 38.10233517 15.61476509 38.10233517 11.14550781 43.97094727 C6.40953842 48.73727543 1.33722208 49.46471102 -5.125 49.5625 C-6.14464844 49.58828125 -7.16429687 49.6140625 -8.21484375 49.640625 C-11.61583485 49.26521994 -13.46129989 48.3473436 -16.1875 46.3125 C-17 44.125 -17 44.125 -17.1875 42.3125 C-12.91895523 39.46680349 -9.32554542 40.25514226 -4.31640625 40.4375 C-1.25310502 40.31512092 0.35305324 40.10865921 2.8125 38.3125 C3.62834568 35.25341587 3.62834568 35.25341587 3.8125 32.3125 C3.173125 32.828125 2.53375 33.34375 1.875 33.875 C-2.39649845 35.87998907 -5.69463184 35.60973658 -10.1875 34.3125 C-14.48486341 31.94530829 -16.7031131 28.94701112 -18.1875 24.3125 C-19.05333284 16.9227174 -18.78045723 11.27093099 -14.1875 5.3125 C-9.59397059 1.0550825 -6.17497715 0.13754345 0 0 Z " fill="#F8F9FB" transform="translate(286.1875,266.6875)"/>
<path d="M0 0 C0.86625 0.495 0.86625 0.495 1.75 1 C4.19883862 2.27075898 4.19883862 2.27075898 8 2 C8.99 1.34 9.98 0.68 11 0 C15.10846667 -0.58260025 18.82288921 -0.85013557 22.25 1.625 C22.8275 2.07875 23.405 2.5325 24 3 C26.65245602 2.33903214 26.65245602 2.33903214 29 1 C32.46918872 -0.73459436 36.20696532 -0.47173877 40 0 C43.8026029 2.0050088 45.61790841 3.42686262 48 7 C48.22705078 9.8190918 48.22705078 9.8190918 48.1953125 13.19921875 C48.18886719 14.40771484 48.18242188 15.61621094 48.17578125 16.86132812 C48.15902344 18.12396484 48.14226563 19.38660156 48.125 20.6875 C48.11597656 21.96173828 48.10695313 23.23597656 48.09765625 24.54882812 C48.07405641 27.69940627 48.04113194 30.84960983 48 34 C44.7 34 41.4 34 38 34 C37.93941406 32.35128906 37.87882812 30.70257813 37.81640625 29.00390625 C37.73202063 26.856761 37.64737165 24.70962609 37.5625 22.5625 C37.52318359 21.47388672 37.48386719 20.38527344 37.44335938 19.26367188 C37.40146484 18.22919922 37.35957031 17.19472656 37.31640625 16.12890625 C37.26141968 14.69140015 37.26141968 14.69140015 37.20532227 13.22485352 C37.24165576 11.02861075 37.24165576 11.02861075 36 10 C32.5 9.83333333 32.5 9.83333333 29 10 C27.31699331 11.68300669 27.77190923 13.82008727 27.68359375 16.12890625 C27.64169922 17.16337891 27.59980469 18.19785156 27.55664062 19.26367188 C27.51732422 20.35228516 27.47800781 21.44089844 27.4375 22.5625 C27.39431641 23.65498047 27.35113281 24.74746094 27.30664062 25.87304688 C27.20018042 28.58186768 27.09955193 31.29091651 27 34 C23.7 34 20.4 34 17 34 C16.90912109 31.65261719 16.90912109 31.65261719 16.81640625 29.2578125 C16.73200934 27.21353181 16.64736092 25.16926148 16.5625 23.125 C16.52318359 22.09246094 16.48386719 21.05992187 16.44335938 19.99609375 C16.40146484 19.00996094 16.35957031 18.02382813 16.31640625 17.0078125 C16.27974854 16.09660645 16.24309082 15.18540039 16.20532227 14.24658203 C16.13422935 11.96516519 16.13422935 11.96516519 15 10 C12.66705225 9.95758277 10.33297433 9.95907063 8 10 C6.31699331 11.68300669 6.77190923 13.82008727 6.68359375 16.12890625 C6.64169922 17.16337891 6.59980469 18.19785156 6.55664062 19.26367188 C6.51732422 20.35228516 6.47800781 21.44089844 6.4375 22.5625 C6.39431641 23.65498047 6.35113281 24.74746094 6.30664062 25.87304688 C6.20018042 28.58186768 6.09955193 31.29091651 6 34 C2.7 34 -0.6 34 -4 34 C-4.09907258 29.80084693 -4.17156173 25.60231748 -4.21972656 21.40234375 C-4.23980982 19.97448879 -4.26708252 18.54671575 -4.30175781 17.11914062 C-4.35042669 15.06359632 -4.37299967 13.00914145 -4.390625 10.953125 C-4.41157227 9.71723633 -4.43251953 8.48134766 -4.45410156 7.20800781 C-3.92239031 3.45172509 -2.92331838 2.31640107 0 0 Z " fill="#F9FAFB" transform="translate(474,267)"/>
<path d="M0 0 C2.33793682 1.13125975 3.39994221 1.81256059 4.9375 3.9375 C5.1547101 6.58746326 5.22101554 8.98826558 5.125 11.625 C5.11146484 12.32689453 5.09792969 13.02878906 5.08398438 13.75195312 C5.04870182 15.48079829 4.99489583 17.20924765 4.9375 18.9375 C5.68128906 18.45152344 6.42507813 17.96554687 7.19140625 17.46484375 C10.79215705 15.4621502 13.94975818 15.2273542 17.9375 15.9375 C21.96914901 18.02798467 24.3287667 19.69014772 25.9375 23.9375 C26.16455078 26.77832031 26.16455078 26.77832031 26.1328125 30.015625 C26.12636719 31.17578125 26.11992188 32.3359375 26.11328125 33.53125 C26.09652344 34.7378125 26.07976563 35.944375 26.0625 37.1875 C26.05347656 38.40953125 26.04445313 39.6315625 26.03515625 40.890625 C26.01159513 43.90644782 25.97869706 46.92187492 25.9375 49.9375 C22.6375 49.9375 19.3375 49.9375 15.9375 49.9375 C15.87691406 48.28878906 15.81632813 46.64007813 15.75390625 44.94140625 C15.66952063 42.794261 15.58487165 40.64712609 15.5 38.5 C15.46068359 37.41138672 15.42136719 36.32277344 15.38085938 35.20117188 C15.33896484 34.16669922 15.29707031 33.13222656 15.25390625 32.06640625 C15.21724854 31.10806885 15.18059082 30.14973145 15.14282227 29.16235352 C15.17915576 26.96611075 15.17915576 26.96611075 13.9375 25.9375 C10.4375 25.77083333 10.4375 25.77083333 6.9375 25.9375 C5.29101907 27.58398093 5.73172611 29.54500482 5.65625 31.8125 C5.61886719 32.79734375 5.58148437 33.7821875 5.54296875 34.796875 C5.50816406 35.83328125 5.47335937 36.8696875 5.4375 37.9375 C5.36893151 39.97931732 5.29624142 42.02100185 5.21875 44.0625 C5.17331055 45.42761719 5.17331055 45.42761719 5.12695312 46.8203125 C4.9375 48.9375 4.9375 48.9375 3.9375 49.9375 C2.44011876 50.0354057 0.93807108 50.06724864 -0.5625 50.0625 C-1.3771875 50.06507813 -2.191875 50.06765625 -3.03125 50.0703125 C-5.0625 49.9375 -5.0625 49.9375 -6.0625 48.9375 C-6.17606149 47.54724594 -6.22201393 46.15136659 -6.23950195 44.7565918 C-6.25233719 43.86864426 -6.26517242 42.98069672 -6.27839661 42.06584167 C-6.28578354 41.09923111 -6.29317047 40.13262054 -6.30078125 39.13671875 C-6.308853 38.14879837 -6.31692474 37.16087799 -6.32524109 36.14302063 C-6.33910039 34.04726934 -6.34981424 31.9514953 -6.35766602 29.85571289 C-6.37487222 26.64881595 -6.41874129 23.44295135 -6.46289062 20.23632812 C-6.47301759 18.2031326 -6.48153368 16.16992829 -6.48828125 14.13671875 C-6.50578934 13.17618088 -6.52329742 12.21564301 -6.54133606 11.22599792 C-6.51964964 4.57379255 -6.51964964 4.57379255 -4.16479492 1.29614258 C-2.0625 -0.0625 -2.0625 -0.0625 0 0 Z " fill="#F1F4F6" transform="translate(632.0625,251.0625)"/>
<path d="M0 0 C3.16025527 2.25732519 5.20895877 4.26922177 6.625 7.875 C7.11106652 12.17835838 7.00187685 16.42642732 6.875 20.75 C6.85695313 21.9153125 6.83890625 23.080625 6.8203125 24.28125 C6.7733382 27.14668249 6.70766293 30.01041168 6.625 32.875 C3.985 32.875 1.345 32.875 -1.375 32.875 C-1.705 32.215 -2.035 31.555 -2.375 30.875 C-5.92018884 32.27259905 -5.92018884 32.27259905 -9.375 33.875 C-14.32266914 34.24840899 -17.48592983 34.09737243 -21.375 30.875 C-23.44459988 27.22856212 -23.89350185 24.0230148 -23.375 19.875 C-21.30705283 16.0088379 -19.06605414 14.52454878 -15.0625 13.0625 C-11.0252014 11.87270008 -7.5609368 11.60781254 -3.375 11.875 C-4.035 10.555 -4.695 9.235 -5.375 7.875 C-10.20729566 7.7802491 -14.63258034 7.8375957 -19.375 8.875 C-20.375 7.875 -20.375 7.875 -20.625 5.5 C-20.375 2.875 -20.375 2.875 -19.125 1.125 C-13.89127396 -2.61337574 -5.78706497 -1.92902166 0 0 Z " fill="#F6F7F9" transform="translate(552.375,268.125)"/>
<path d="M0 0 C3.43750112 2.03443944 4.36090037 3.2568299 6.0625 6.8125 C6.40307617 9.7668457 6.40307617 9.7668457 6.35546875 12.98828125 C6.34580078 14.14521484 6.33613281 15.30214844 6.32617188 16.49414062 C6.30103516 17.69232422 6.27589844 18.89050781 6.25 20.125 C6.22969727 21.9512793 6.22969727 21.9512793 6.20898438 23.81445312 C6.17369261 26.81425345 6.12438481 29.81314975 6.0625 32.8125 C-0.671875 32.9609375 -0.671875 32.9609375 -3.0625 31.625 C-3.68125 31.356875 -4.3 31.08875 -4.9375 30.8125 C-5.68 31.286875 -6.4225 31.76125 -7.1875 32.25 C-10.35696033 34.05082973 -12.42868524 34.08682996 -16 33.4375 C-19.47314862 32.31712948 -20.93118212 30.82197682 -22.9375 27.8125 C-23.63500803 24.65656201 -23.64184208 21.96772346 -22.9375 18.8125 C-19.7028271 14.20554163 -16.38219068 12.84511375 -10.9375 11.8125 C-8.60534156 11.73846322 -6.26889212 11.71734114 -3.9375 11.8125 C-4.2675 10.4925 -4.5975 9.1725 -4.9375 7.8125 C-9.77626161 7.71762232 -14.18648798 7.80470957 -18.9375 8.8125 C-19.5975 8.4825 -20.2575 8.1525 -20.9375 7.8125 C-21.1875 5.5 -21.1875 5.5 -20.9375 2.8125 C-15.49864028 -2.43881283 -6.83691673 -2.58024363 0 0 Z " fill="#F7F8FA" transform="translate(357.9375,268.1875)"/>
<path d="M0 0 C0.86625 0.495 0.86625 0.495 1.75 1 C4.19883862 2.27075898 4.19883862 2.27075898 8 2 C8.598125 1.67 9.19625 1.34 9.8125 1 C13.00849126 -0.46102458 15.52639283 -0.30470238 19 0 C22.18459646 1.51992104 24.73579966 3.28295959 27 6 C28.03254884 9.09764653 28.12908904 11.26148787 28.1328125 14.5078125 C28.13474609 16.11076172 28.13474609 16.11076172 28.13671875 17.74609375 C28.13285156 18.86113281 28.12898438 19.97617187 28.125 21.125 C28.13080078 22.80916016 28.13080078 22.80916016 28.13671875 24.52734375 C28.13542969 25.59339844 28.13414062 26.65945313 28.1328125 27.7578125 C28.13168457 28.7389502 28.13055664 29.72008789 28.12939453 30.73095703 C28 33 28 33 27 34 C24.03 34 21.06 34 18 34 C17.505 22.12 17.505 22.12 17 10 C14.03 10 11.06 10 8 10 C6.76939579 12.46120841 6.7942277 14.25776866 6.68359375 17.0078125 C6.64169922 17.99394531 6.59980469 18.98007812 6.55664062 19.99609375 C6.51732422 21.02863281 6.47800781 22.06117188 6.4375 23.125 C6.39431641 24.16527344 6.35113281 25.20554687 6.30664062 26.27734375 C6.20037232 28.8513983 6.09966473 31.42568131 6 34 C2.7 34 -0.6 34 -4 34 C-4.09907258 29.80084693 -4.17156173 25.60231748 -4.21972656 21.40234375 C-4.23980982 19.97448879 -4.26708252 18.54671575 -4.30175781 17.11914062 C-4.35042669 15.06359632 -4.37299967 13.00914145 -4.390625 10.953125 C-4.41157227 9.71723633 -4.43251953 8.48134766 -4.45410156 7.20800781 C-3.92239031 3.45172509 -2.92331838 2.31640107 0 0 Z " fill="#F7F9FA" transform="translate(377,267)"/>
<path d="M0 0 C1.9375 1.8125 1.9375 1.8125 2.3125 4.4375 C1.9375 6.8125 1.9375 6.8125 0.9375 7.8125 C-1.5625 7.9375 -1.5625 7.9375 -4.0625 7.8125 C-4.3925 7.4825 -4.7225 7.1525 -5.0625 6.8125 C-6.72867115 6.77186168 -8.39638095 6.769779 -10.0625 6.8125 C-10.0625 8.1325 -10.0625 9.4525 -10.0625 10.8125 C-9.38703125 11.04324219 -8.7115625 11.27398437 -8.015625 11.51171875 C1.39090029 14.95080964 1.39090029 14.95080964 3.9375 19.8125 C4.5612752 23.55515118 4.2848948 25.21498095 2.375 28.5 C-1.55041956 32.22411599 -5.67800347 33.94749337 -11.0625 34.1875 C-15.23962449 34.04064797 -18.35081572 32.66834214 -22.0625 30.8125 C-21.8125 28.4375 -21.8125 28.4375 -21.0625 25.8125 C-19 24.5 -19 24.5 -17.0625 23.8125 C-16.7325 24.1425 -16.4025 24.4725 -16.0625 24.8125 C-14.54321962 24.88429964 -13.02082518 24.89642007 -11.5 24.875 C-10.67371094 24.86597656 -9.84742188 24.85695313 -8.99609375 24.84765625 C-8.35800781 24.83605469 -7.71992188 24.82445312 -7.0625 24.8125 C-7.74139371 21.67981081 -7.74139371 21.67981081 -10.2421875 20.53125 C-11.57636719 19.92796875 -11.57636719 19.92796875 -12.9375 19.3125 C-19.00327188 16.55372328 -19.00327188 16.55372328 -21.0625 13.8125 C-21.80794217 10.72671614 -21.74682378 7.90825042 -21.0625 4.8125 C-16.07613216 -1.86735126 -7.36909555 -2.8574044 0 0 Z " fill="#F4F6F8" transform="translate(460.0625,268.1875)"/>
<path d="M0 0 C2.4375 0.875 2.4375 0.875 4.4375 3.875 C4.5625 7.0625 4.5625 7.0625 4.4375 9.875 C6.7475 9.875 9.0575 9.875 11.4375 9.875 C11.47991723 12.20794775 11.47842937 14.54202567 11.4375 16.875 C11.1075 17.205 10.7775 17.535 10.4375 17.875 C8.4575 17.875 6.4775 17.875 4.4375 17.875 C4.9325 25.795 4.9325 25.795 5.4375 33.875 C7.7475 34.865 10.0575 35.855 12.4375 36.875 C12.4375 38.525 12.4375 40.175 12.4375 41.875 C8.76987392 44.22228069 5.72051385 44.3180704 1.4375 43.875 C-4.10096154 40.79807692 -4.10096154 40.79807692 -5.5625 37.875 C-5.64650529 36.28052536 -5.66977467 34.68259455 -5.66015625 33.0859375 C-5.65532227 31.67441406 -5.65532227 31.67441406 -5.65039062 30.234375 C-5.64201172 29.24953125 -5.63363281 28.2646875 -5.625 27.25 C-5.62048828 26.25742187 -5.61597656 25.26484375 -5.61132812 24.2421875 C-5.59952145 21.7863984 -5.583054 19.33072896 -5.5625 16.875 C-7.5425 16.875 -9.5225 16.875 -11.5625 16.875 C-11.60504356 14.87545254 -11.60330783 12.87458364 -11.5625 10.875 C-10.5625 9.875 -10.5625 9.875 -8 9.8125 C-7.195625 9.833125 -6.39125 9.85375 -5.5625 9.875 C-5.624375 8.781875 -5.68625 7.68875 -5.75 6.5625 C-5.5625 2.875 -5.5625 2.875 -4.375 0.875 C-2.5625 -0.125 -2.5625 -0.125 0 0 Z " fill="#F6F8F9" transform="translate(421.5625,258.125)"/>
<path d="M0 0 C2.3125 1.25 2.3125 1.25 3.3125 2.25 C3.35342937 4.58297433 3.35491723 6.91705225 3.3125 9.25 C5.6225 9.25 7.9325 9.25 10.3125 9.25 C10.3125 11.56 10.3125 13.87 10.3125 16.25 C8.0025 16.25 5.6925 16.25 3.3125 16.25 C3.45303872 18.87538284 3.59968947 21.50017427 3.75 24.125 C3.78931641 24.87136719 3.82863281 25.61773437 3.86914062 26.38671875 C4.02823624 30.44986864 4.02823624 30.44986864 5.3125 34.25 C6.9625 34.25 8.6125 34.25 10.3125 34.25 C11.7731285 36.89738916 12.3125 38.14448334 12.3125 41.25 C7.7475153 43.67514812 4.191636 43.31379485 -0.6875 42.25 C-3.52180929 41.35495496 -4.35450747 40.85771138 -5.78125 38.25390625 C-7.03234796 34.10694791 -6.90080884 30.24085777 -6.8125 25.9375 C-6.80347656 25.10154297 -6.79445313 24.26558594 -6.78515625 23.40429688 C-6.76170989 21.35274031 -6.72584266 19.30133223 -6.6875 17.25 C-8.3375 16.92 -9.9875 16.59 -11.6875 16.25 C-11.6875 13.94 -11.6875 11.63 -11.6875 9.25 C-10.0375 9.25 -8.3875 9.25 -6.6875 9.25 C-6.81125 7.6103125 -6.81125 7.6103125 -6.9375 5.9375 C-6.6875 2.25 -6.6875 2.25 -5 0.1875 C-2.6875 -0.75 -2.6875 -0.75 0 0 Z " fill="#FAFBFC" transform="translate(576.6875,258.75)"/>
<path d="M0 0 C3.5625 1.5 3.5625 1.5 6 3 C6 4.65 6 6.3 6 8 C4.35 8.66 2.7 9.32 1 10 C0.67 9.67 0.34 9.34 0 9 C-3.48497993 8.61278001 -5.37636806 8.60612719 -8.375 10.5 C-10.63498923 13.9769065 -10.73059509 17.03279011 -10 21 C-8.90153295 24.18570146 -8.90153295 24.18570146 -6 26 C-2.29634303 26.41033322 1.29027722 26.28782332 5 26 C6.4606285 28.64738916 7 29.89448334 7 33 C1.04566662 35.50708774 -5.0259228 36.07517842 -11.28125 34.3828125 C-15.85260418 32.45533854 -18.45115816 30.00036402 -20.375 25.4140625 C-21.95466164 19.3126194 -22.02893288 13.35797119 -19.5 7.5625 C-13.77100384 1.69027894 -8.36634208 -1.4791323 0 0 Z " fill="#F7F8FA" transform="translate(614,267)"/>
<path d="M0 0 C3.65316671 1.24976756 4.78065836 1.67098753 7 5 C7.53625 4.34 8.0725 3.68 8.625 3 C11 1 11 1 14.25 0.75 C15.1575 0.8325 16.065 0.915 17 1 C17 3.97 17 6.94 17 10 C15.906875 9.9175 14.81375 9.835 13.6875 9.75 C10.03141325 9.58920775 10.03141325 9.58920775 8.30151367 11.71777344 C6.84167762 14.27762101 6.58206841 15.83946573 6.48828125 18.765625 C6.45283203 19.65507812 6.41738281 20.54453125 6.38085938 21.4609375 C6.34702148 22.84152344 6.34702148 22.84152344 6.3125 24.25 C6.27833984 25.18585938 6.24417969 26.12171875 6.20898438 27.0859375 C6.12668898 29.39020846 6.06166287 31.69508463 6 34 C2.7 34 -0.6 34 -4 34 C-4.09907258 29.80084693 -4.17156173 25.60231748 -4.21972656 21.40234375 C-4.23980982 19.97448879 -4.26708252 18.54671575 -4.30175781 17.11914062 C-4.35042669 15.06359632 -4.37299967 13.00914145 -4.390625 10.953125 C-4.41157227 9.71723633 -4.43251953 8.48134766 -4.45410156 7.20800781 C-3.92239031 3.45172509 -2.92331838 2.31640107 0 0 Z " fill="#FBFBFC" transform="translate(314,267)"/>
<path d="M0 0 C1.98784899 1.98784899 1.22997787 5.72700407 1.25 8.4375 C1.270625 9.13166016 1.29125 9.82582031 1.3125 10.54101562 C1.328125 12.55859375 1.328125 12.55859375 1 16 C-2.70415293 18.46943529 -4.62144505 18.46913089 -9 18 C-10.9375 16.5 -10.9375 16.5 -12 14 C-12.54380217 9.71975063 -12.63385621 5.60422428 -10 2 C-6.34346173 -0.43769218 -4.30999899 -0.23944439 0 0 Z " fill="#16416C" transform="translate(290,275)"/>
<path d="M0 0 C-0.35494045 2.62655933 -0.72461964 4.57968261 -2.1875 6.8125 C-4.79361661 8.51995571 -6.9599355 8.20267097 -10 8 C-10.33 6.35 -10.66 4.7 -11 3 C-7.48550811 -0.37391222 -4.73940561 -0.27342725 0 0 Z " fill="#224B74" transform="translate(355,286)"/>
<path d="M0 0 C0.22223194 2.74086056 0.34781139 4.43963721 -1.125 6.8125 C-3.77535957 8.49106106 -5.93246424 8.20450238 -9 8 C-9.33 6.35 -9.66 4.7 -10 3 C-6.48812804 0.59185923 -4.27343092 -0.36629408 0 0 Z " fill="#14406B" transform="translate(549,286)"/>
</svg>
